<?xml version="1.0" standalone="no"?>
<!DOCTYPE svg PUBLIC "-//W3C//DTD SVG 20010904//EN"
 "http://www.w3.org/TR/2001/REC-SVG-20010904/DTD/svg10.dtd">
<svg version="1.0" xmlns="http://www.w3.org/2000/svg"
 width="746.000000pt" height="178.000000pt" viewBox="0 0 746.000000 178.000000"
 preserveAspectRatio="xMidYMid meet">

<g transform="translate(0.000000,178.000000) scale(0.100000,-0.100000)"
fill="#000000" stroke="none">
<path d="M95 1688 c-3 -7 -4 -371 -3 -808 l3 -795 3645 0 3645 0 0 805 0 805
-3643 3 c-2909 2 -3644 0 -3647 -10z m3235 -407 c0 -39 -1 -40 -37 -43 l-38
-3 -5 -355 c-4 -259 -8 -361 -18 -377 -26 -46 -50 -53 -169 -53 l-113 0 0 40
0 39 98 3 97 3 0 350 0 350 -32 3 c-31 3 -33 6 -33 43 l0 39 125 0 125 0 0
-39z m722 -353 l3 -393 35 -5 c32 -5 35 -8 35 -40 l0 -35 -120 0 -120 0 0 35
c0 31 3 35 30 40 l30 5 0 350 0 350 -32 3 c-31 3 -33 6 -33 43 l0 39 85 0 85
0 2 -392z m360 210 l3 -103 43 -3 43 -3 -3 -42 c-3 -42 -3 -42 -46 -45 l-42
-3 2 -202 3 -202 50 -5 c50 -5 50 -5 50 -40 l0 -35 -67 -3 c-129 -6 -138 14
-138 288 l0 200 -40 0 -40 0 0 44 c0 44 0 45 38 48 l37 3 3 103 3 102 49 0 49
0 3 -102z m-665 -132 l28 -24 0 -242 0 -242 -28 -24 c-27 -23 -33 -24 -186
-24 -138 0 -162 2 -181 18 -31 25 -39 82 -39 272 0 190 8 247 39 272 19 16 43
18 181 18 153 0 159 -1 186 -24z"/>
<path d="M3454 937 c-2 -7 -3 -100 -2 -207 l3 -195 90 -3 c148 -5 135 -25 135
207 0 172 -2 200 -16 205 -32 12 -204 7 -210 -7z"/>
</g>
</svg>
